<?xml version="1.0" encoding="utf-8"?>
<!-- Generator: Adobe Illustrator 27.5.0, SVG Export Plug-In . SVG Version: 6.00 Build 0)  -->
<svg version="1.1" xmlns="http://www.w3.org/2000/svg" xmlns:xlink="http://www.w3.org/1999/xlink" x="0px" y="0px"
	 viewBox="0 0 500 500" style="enable-background:new 0 0 500 500;" xml:space="preserve">
<g id="BACKGROUND">
	<rect style="fill:#FFFFFF;" width="500" height="500"/>
</g>
<g id="OBJECTS">
	<text transform="matrix(1 0 0 1 118.7285 380.041)"><tspan x="0" y="0" style="fill:#1F4A99; font-family:'Raleway-Regular'; font-size:36.2884px; letter-spacing:3;">SPORT </tspan><tspan x="148.708" y="0" style="fill:#1F4A99; font-family:'Raleway-Bold'; font-size:36.2884px; letter-spacing:3;">LOGO</tspan></text>
	<g>
		<linearGradient id="SVGID_1_" gradientUnits="userSpaceOnUse" x1="237.7329" y1="163.4664" x2="281.8262" y2="163.4664">
			<stop  offset="0" style="stop-color:#1F4A99"/>
			<stop  offset="1" style="stop-color:#2492CD"/>
		</linearGradient>
		<path style="fill:url(#SVGID_1_);" d="M281.826,163.466c0,12.176-9.87,22.047-22.047,22.047c-12.176,0-22.046-9.871-22.046-22.047
			c0-12.176,9.871-22.047,22.046-22.047C271.956,141.419,281.826,151.29,281.826,163.466z"/>
		<g>
			
				<linearGradient id="SVGID_00000008140013002649290570000001900408500490306438_" gradientUnits="userSpaceOnUse" x1="130.7158" y1="288.1612" x2="263.7488" y2="288.1612">
				<stop  offset="0" style="stop-color:#34D4EA"/>
				<stop  offset="1" style="stop-color:#AAF7F9"/>
			</linearGradient>
			<path style="fill:url(#SVGID_00000008140013002649290570000001900408500490306438_);" d="M263.099,251.27
				c1.154,8.136,0.755,16.584-1.065,24.845c-0.177,1.049-0.521,2.049-0.793,3.075c-0.296,1.019-0.558,2.054-0.887,3.066l-1.093,3.01
				l-0.56,1.507l-0.657,1.468l-1.332,2.943c-0.496,0.955-1.031,1.893-1.55,2.843c-0.992,1.931-2.254,3.706-3.452,5.528
				c-0.61,0.904-1.323,1.735-1.984,2.606c-0.686,0.854-1.318,1.755-2.085,2.543c-0.736,0.815-1.494,1.613-2.246,2.419
				c-0.367,0.412-0.764,0.794-1.177,1.159l-1.221,1.119c-3.203,3.06-6.914,5.554-10.73,7.835c-3.893,2.163-8,3.948-12.276,5.252
				c-4.276,1.301-8.706,2.094-13.152,2.421c-4.45,0.293-8.914,0.127-13.299-0.457c-4.376-0.641-8.693-1.618-12.829-3.07
				c-4.131-1.455-8.132-3.219-11.908-5.349c-0.936-0.547-1.894-1.052-2.805-1.635l-2.731-1.739c-1.76-1.248-3.516-2.489-5.18-3.845
				c-13.393-10.729-23.061-25.493-27.37-41.355c2.255,3.442,4.57,6.771,7.004,9.966c2.483,3.164,5.055,6.205,7.777,9.069
				c2.743,2.848,5.615,5.524,8.597,8.027c2.99,2.497,6.139,4.757,9.367,6.837c6.46,4.163,13.426,7.353,20.608,9.457
				c3.593,1.051,7.251,1.79,10.925,2.184c3.668,0.433,7.358,0.526,11.008,0.255c3.656-0.216,7.272-0.851,10.788-1.838
				c0.895-0.193,1.748-0.528,2.625-0.786c0.88-0.252,1.731-0.59,2.584-0.923l1.283-0.491c0.423-0.177,0.83-0.387,1.246-0.578
				c0.826-0.396,1.667-0.765,2.503-1.146c6.548-3.314,12.464-7.948,17.468-13.586c1.163-1.479,2.489-2.851,3.546-4.435
				c0.553-0.773,1.128-1.537,1.672-2.323l1.537-2.431l0.777-1.219l0.69-1.27l1.398-2.548c0.449-0.86,0.837-1.752,1.263-2.632
				c0.406-0.886,0.862-1.758,1.205-2.675C259.647,267.144,261.717,259.372,263.099,251.27z"/>
			
				<linearGradient id="SVGID_00000173881329703645842000000000346508560725938358_" gradientUnits="userSpaceOnUse" x1="111.1796" y1="227.2244" x2="247.2344" y2="227.2244">
				<stop  offset="0" style="stop-color:#34D4EA"/>
				<stop  offset="1" style="stop-color:#AAF7F9"/>
			</linearGradient>
			<path style="fill:url(#SVGID_00000173881329703645842000000000346508560725938358_);" d="M123.022,283.396
				c-10.132-16.895-14.345-38.063-10.348-58.447c1.993-10.16,6.111-20.099,12.443-28.672c3.148-4.292,6.889-8.185,11.045-11.593
				c4.178-3.384,8.823-6.213,13.735-8.42c4.934-2.158,10.156-3.677,15.469-4.505c5.319-0.784,10.715-0.923,16.011-0.375
				c10.602,1.09,20.733,4.715,29.589,10.086c17.775,10.756,30.601,28.126,36.269,46.994c-5.148-8.413-11.053-16.12-17.894-22.729
				c-6.816-6.612-14.495-12.167-22.792-16.205c-8.285-4.031-17.17-6.58-26.087-7.096c-4.451-0.259-8.902-0.062-13.24,0.72
				c-4.344,0.732-8.581,2.006-12.599,3.797c-4.034,1.759-7.819,4.048-11.292,6.758c-3.499,2.682-6.634,5.848-9.446,9.31
				c-5.614,6.947-9.722,15.231-12.308,24.078c-2.597,8.856-3.654,18.277-3.346,27.77
				C118.522,264.376,120.253,273.931,123.022,283.396z"/>
		</g>
		<g>
			
				<linearGradient id="SVGID_00000075130558483192221400000017552253963168326330_" gradientUnits="userSpaceOnUse" x1="222.0272" y1="181.9814" x2="376.3721" y2="305.3309">
				<stop  offset="0" style="stop-color:#1F4A99"/>
				<stop  offset="1" style="stop-color:#2492CD"/>
			</linearGradient>
			<path style="fill:url(#SVGID_00000075130558483192221400000017552253963168326330_);" d="M264.658,225.46
				c-11.247,11.633-29.845,12.447-46.339,11.748c-16.494-0.7-34.581-1.671-47.785,7.868c15.863-6.488,33.961-2.847,50.917,0.131
				c16.956,2.979,35.843,4.836,50.172-4.384c14.237-9.159,19.67-26.413,24.801-42.137c5.02-15.386,11.858-31.647,27.509-39.508
				c-14.344,1.837-28.078,9.005-35.236,21.154C280.38,194.446,276.175,213.548,264.658,225.46z"/>
			
				<linearGradient id="SVGID_00000178905756310030394650000008719988186512994944_" gradientUnits="userSpaceOnUse" x1="249.9464" y1="153.5723" x2="404.2979" y2="276.9272" gradientTransform="matrix(0.9769 0.2135 -0.2135 0.9769 52.4992 -82.465)">
				<stop  offset="0" style="stop-color:#1F4A99"/>
				<stop  offset="1" style="stop-color:#2492CD"/>
			</linearGradient>
			<path style="fill:url(#SVGID_00000178905756310030394650000008719988186512994944_);" d="M304.212,222.65
				c-3.567,6.044-5.721,13.191-4.569,20.114c1.077,6.491,4.97,12.253,9.802,16.719c4.832,4.466,10.59,7.787,16.332,10.999
				c20.551,11.5,41.591,22.125,63.044,31.838c-22.159-13.551-44.524-27.438-62.352-46.327c-2.12-2.246-4.19-4.583-5.676-7.29
				c-5.878-10.698-1.332-24.162,5.209-34.468c5.922-9.334,13.375-17.593,21.435-25.122c3.489-3.259,6.454-7.012,10.509-9.511
				c4.48-2.762,9.543-6.121,14.59-7.72c-14.262,4.518-27.893,10.99-39.911,19.959C322.106,199.692,310.862,211.384,304.212,222.65z"
				/>
		</g>
	</g>
</g>
<g id="DESIGNED_BY_FREEPIK">
	<g>
		<g id="XMLID_319_">
			<g id="XMLID_338_">
				<path id="XMLID_346_" style="fill:#1D262D;" d="M260.103,465.466c-0.432,0.442-0.803,0.931-1.108,1.453l-0.465-0.241
					c-0.066-0.298-0.349-0.503-0.659-0.467c-0.33,0.039-0.567,0.339-0.528,0.67c0.039,0.331,0.339,0.567,0.67,0.529
					c0.065-0.008,0.127-0.026,0.184-0.053l0.451,0.234c-0.251,0.554-0.433,1.139-0.539,1.744l0.746,0.131
					c0.23-1.306,0.85-2.506,1.792-3.472L260.103,465.466z"/>
				<path id="XMLID_345_" style="fill:#1D262D;" d="M265.592,463.163c-0.171,0-0.341,0.006-0.51,0.018l-0.073-0.627
					c0.188-0.148,0.296-0.389,0.266-0.645c-0.047-0.393-0.402-0.674-0.796-0.628c-0.392,0.047-0.674,0.402-0.628,0.796
					c0.03,0.254,0.19,0.461,0.405,0.563l0.073,0.624c-0.714,0.116-1.403,0.332-2.06,0.646l0.327,0.684
					c0.934-0.447,1.941-0.674,2.995-0.674c0.496,0,0.992,0.054,1.475,0.158l0.161-0.741
					C266.692,463.222,266.142,463.163,265.592,463.163z"/>
				<path id="XMLID_344_" style="fill:#1D262D;" d="M272.194,465.711c0.331-0.041,0.565-0.342,0.525-0.673
					c-0.041-0.331-0.342-0.566-0.672-0.525c-0.31,0.038-0.536,0.304-0.53,0.608l-0.416,0.363c-0.418-0.43-0.89-0.813-1.408-1.139
					l-0.403,0.641c1.134,0.715,2.02,1.727,2.563,2.926l0.691-0.313c-0.251-0.555-0.567-1.072-0.942-1.545l0.402-0.352
					C272.064,465.716,272.129,465.719,272.194,465.711z"/>
				<path id="XMLID_343_" style="fill:#1D262D;" d="M265.044,473.372c-0.386,0.023-0.774,0.034-1.157,0.034
					c-0.88,0-1.732-0.061-2.478-0.179c-0.39-0.063-0.846-0.155-1.27-0.292c1.046,1.86,3.069,3.125,5.388,3.125
					c2.855,0,5.263-1.916,5.95-4.504c-0.682,0.449-1.506,0.825-2.459,1.122C267.839,473.047,266.463,473.286,265.044,473.372z"/>
				<path id="XMLID_339_" style="fill:#1D262D;" d="M265.592,464.68c-3.353,0-6.08,2.666-6.08,5.943
					c0,0.426,0.047,0.849,0.138,1.262c0.673,0.482,2.705,0.89,5.348,0.73c2.879-0.173,5.297-0.957,6.672-2.158
					c-0.006-0.195-0.021-0.391-0.045-0.582C271.243,466.913,268.65,464.68,265.592,464.68z M263.433,471.194
					c-1.021,0-1.85-0.83-1.85-1.85c0-1.02,0.829-1.85,1.85-1.85c1.02,0,1.85,0.83,1.85,1.85
					C265.282,470.364,264.452,471.194,263.433,471.194z M268.17,470.286c-0.75,0-1.36-0.61-1.36-1.36s0.61-1.36,1.36-1.36
					s1.36,0.61,1.36,1.36S268.92,470.286,268.17,470.286z"/>
			</g>
			<path id="XMLID_336_" style="fill:#1D262D;" d="M281.595,466.547c-0.294-0.116-0.805-0.31-1.382-0.237
				c-0.551,0.068-0.844,0.34-0.844,1.006v0.866h2.227v1.718h-2.227v5.454h-1.932V469.9h-1.34v-1.718h1.34v-0.888
				c0-1.681,0.895-2.783,2.568-2.783c0.643,0,1.157,0.122,1.59,0.309L281.595,466.547z"/>
			<path id="XMLID_334_" style="fill:#1D262D;" d="M286.298,469.879c-0.177-0.03-0.357-0.047-0.526-0.047
				c-0.896,0-1.51,0.548-1.51,1.614v3.907h-1.932v-7.172h1.872v0.785c0.452-0.674,1.141-0.978,2.022-0.978
				c0.414,0,0.848,0.128,1.094,0.337L286.298,469.879z"/>
			<path id="XMLID_331_" style="fill:#1D262D;" d="M293.965,471.757c0,0.222-0.015,0.488-0.037,0.651h-5.084
				c0.207,1.036,0.932,1.487,1.843,1.487c0.621,0,1.295-0.251,1.813-0.688l1.133,1.243c-0.814,0.747-1.851,1.088-3.057,1.088
				c-2.198,0-3.723-1.495-3.723-3.753c0-2.257,1.48-3.797,3.626-3.797C292.544,467.989,293.958,469.522,293.965,471.757z
				 M288.851,471.091h3.175c-0.177-0.918-0.732-1.437-1.561-1.437C289.554,469.654,289.02,470.202,288.851,471.091z"/>
			<path id="XMLID_328_" style="fill:#1D262D;" d="M301.618,471.757c0,0.222-0.015,0.488-0.037,0.651h-5.085
				c0.208,1.036,0.933,1.487,1.844,1.487c0.621,0,1.295-0.251,1.813-0.688l1.132,1.243c-0.814,0.747-1.851,1.088-3.057,1.088
				c-2.198,0-3.723-1.495-3.723-3.753c0-2.257,1.48-3.797,3.626-3.797C300.197,467.989,301.611,469.522,301.618,471.757z
				 M296.504,471.091h3.175c-0.177-0.918-0.732-1.437-1.561-1.437C297.207,469.654,296.674,470.202,296.504,471.091z"/>
			<path id="XMLID_325_" style="fill:#1D262D;" d="M309.964,471.765c0,2.153-1.495,3.774-3.472,3.774
				c-0.962,0-1.643-0.378-2.108-0.933v3.708h-1.925v-10.133h1.888v0.792c0.466-0.584,1.154-0.984,2.139-0.984
				C308.469,467.989,309.964,469.61,309.964,471.765z M304.287,471.765c0,1.132,0.747,1.976,1.843,1.976
				c1.14,0,1.851-0.881,1.851-1.976c0-1.096-0.711-1.977-1.851-1.977C305.034,469.788,304.287,470.632,304.287,471.765z"/>
			<path id="XMLID_322_" style="fill:#1D262D;" d="M313.067,465.836c0,0.695-0.54,1.229-1.236,1.229
				c-0.695,0-1.228-0.533-1.228-1.229c0-0.696,0.533-1.244,1.228-1.244C312.527,464.592,313.067,465.14,313.067,465.836z
				 M312.809,475.354h-1.932v-7.172h1.932V475.354z"/>
			<path id="XMLID_320_" style="fill:#1D262D;" d="M316.032,470.735l2.701-2.554h2.368l-3.479,3.375l3.501,3.797h-2.376
				l-2.716-2.901v2.901h-1.932v-10.657h1.932V470.735z"/>
		</g>
		<g>
			<path style="fill:#1D262D;" d="M184.412,475.289v-1.055c-0.527,0.718-1.391,1.23-2.387,1.23c-1.846,0-3.149-1.406-3.149-3.706
				c0-2.256,1.289-3.721,3.149-3.721c0.952,0,1.816,0.469,2.387,1.245v-3.765h1.099v9.771H184.412z M184.412,473.37v-3.208
				c-0.395-0.615-1.245-1.143-2.124-1.143c-1.42,0-2.27,1.172-2.27,2.739c0,1.567,0.85,2.725,2.27,2.725
				C183.167,474.483,184.017,473.985,184.412,473.37z"/>
			<path style="fill:#1D262D;" d="M186.932,471.744c0-2.051,1.465-3.706,3.486-3.706c2.139,0,3.398,1.67,3.398,3.794v0.278h-5.728
				c0.088,1.333,1.025,2.446,2.549,2.446c0.806,0,1.626-0.322,2.183-0.894l0.527,0.718c-0.703,0.703-1.655,1.084-2.812,1.084
				C188.44,475.465,186.932,473.956,186.932,471.744z M190.403,468.946c-1.509,0-2.256,1.274-2.314,2.358h4.644
				C192.718,470.25,192.015,468.946,190.403,468.946z"/>
			<path style="fill:#1D262D;" d="M194.607,474.352l0.571-0.791c0.469,0.542,1.362,1.011,2.329,1.011c1.084,0,1.67-0.513,1.67-1.216
				c0-1.714-4.38-0.659-4.38-3.281c0-1.099,0.952-2.036,2.636-2.036c1.202,0,2.051,0.454,2.623,1.025l-0.513,0.762
				c-0.424-0.513-1.201-0.893-2.109-0.893c-0.966,0-1.567,0.483-1.567,1.113c0,1.553,4.379,0.527,4.379,3.281
				c0,1.186-0.952,2.139-2.783,2.139C196.306,475.465,195.324,475.113,194.607,474.352z"/>
			<path style="fill:#1D262D;" d="M201.477,466.471c0-0.41,0.337-0.747,0.732-0.747c0.41,0,0.747,0.337,0.747,0.747
				c0,0.41-0.337,0.732-0.747,0.732C201.814,467.203,201.477,466.881,201.477,466.471z M201.667,475.289v-7.075h1.099v7.075H201.667
				z"/>
			<path style="fill:#1D262D;" d="M204.582,477.105l0.556-0.82c0.586,0.703,1.289,0.967,2.3,0.967c1.172,0,2.271-0.571,2.271-2.124
				v-1.011c-0.513,0.718-1.377,1.26-2.373,1.26c-1.846,0-3.149-1.377-3.149-3.662c0-2.271,1.289-3.677,3.149-3.677
				c0.952,0,1.802,0.469,2.373,1.245v-1.069h1.099v6.87c0,2.344-1.641,3.076-3.369,3.076
				C206.237,478.16,205.416,477.926,204.582,477.105z M209.708,473.253v-3.091c-0.381-0.615-1.23-1.143-2.109-1.143
				c-1.421,0-2.27,1.128-2.27,2.695c0,1.553,0.849,2.695,2.27,2.695C208.478,474.41,209.328,473.868,209.708,473.253z"/>
			<path style="fill:#1D262D;" d="M217.413,475.289v-4.629c0-1.245-0.63-1.641-1.582-1.641c-0.864,0-1.685,0.527-2.094,1.099v5.171
				h-1.099v-7.075h1.099v1.025c0.498-0.586,1.464-1.201,2.519-1.201c1.48,0,2.256,0.747,2.256,2.285v4.966H217.413z"/>
			<path style="fill:#1D262D;" d="M219.933,471.744c0-2.051,1.464-3.706,3.486-3.706c2.139,0,3.398,1.67,3.398,3.794v0.278h-5.727
				c0.088,1.333,1.025,2.446,2.548,2.446c0.806,0,1.626-0.322,2.183-0.894l0.527,0.718c-0.703,0.703-1.655,1.084-2.813,1.084
				C221.441,475.465,219.933,473.956,219.933,471.744z M223.404,468.946c-1.509,0-2.256,1.274-2.314,2.358h4.643
				C225.718,470.25,225.015,468.946,223.404,468.946z"/>
			<path style="fill:#1D262D;" d="M233.35,475.289v-1.055c-0.527,0.718-1.391,1.23-2.388,1.23c-1.846,0-3.149-1.406-3.149-3.706
				c0-2.256,1.289-3.721,3.149-3.721c0.952,0,1.817,0.469,2.388,1.245v-3.765h1.099v9.771H233.35z M233.35,473.37v-3.208
				c-0.396-0.615-1.245-1.143-2.124-1.143c-1.421,0-2.27,1.172-2.27,2.739c0,1.567,0.85,2.725,2.27,2.725
				C232.105,474.483,232.954,473.985,233.35,473.37z"/>
			<path style="fill:#1D262D;" d="M239.692,475.289v-9.771h1.099v3.765c0.571-0.776,1.421-1.245,2.388-1.245
				c1.845,0,3.15,1.465,3.15,3.721c0,2.3-1.304,3.706-3.15,3.706c-0.996,0-1.86-0.513-2.388-1.23v1.055H239.692z M242.899,474.483
				c1.436,0,2.286-1.157,2.286-2.725c0-1.567-0.85-2.739-2.286-2.739c-0.864,0-1.728,0.527-2.109,1.143v3.208
				C241.171,473.985,242.036,474.483,242.899,474.483z"/>
			<path style="fill:#1D262D;" d="M247.528,477.062c0.161,0.073,0.425,0.117,0.601,0.117c0.483,0,0.806-0.161,1.055-0.747
				l0.469-1.069l-2.959-7.148h1.186l2.358,5.801l2.344-5.801h1.201l-3.545,8.511c-0.425,1.025-1.143,1.421-2.08,1.436
				c-0.234,0-0.601-0.044-0.806-0.102L247.528,477.062z"/>
		</g>
	</g>
</g>
</svg>
